<svg width="121" height="128" viewBox="0 0 121 128" fill="none" xmlns="http://www.w3.org/2000/svg">
<path fill-rule="evenodd" clip-rule="evenodd" d="M63.0977 13.8571C43.556 6.20402 21.5104 15.8417 13.8573 35.3834C6.20426 54.925 15.8419 76.9707 35.3836 84.6238C44.2843 88.1095 53.7045 88.0082 62.0476 85.0178C55.838 86.2288 49.2218 85.7474 42.8947 83.2695C25.1529 76.3213 16.4029 56.3062 23.351 38.5644C30.2992 20.8226 50.3144 12.0726 68.0562 19.0208C72.6246 20.8099 76.5969 23.4655 79.8585 26.7255C75.7461 21.1221 70.0484 16.5791 63.0977 13.8571Z" fill="black"/>
<path fill-rule="evenodd" clip-rule="evenodd" d="M69.689 35.8649C48.7022 35.8649 31.689 52.8781 31.689 73.8649C31.689 94.8518 48.7022 111.865 69.689 111.865C79.2479 111.865 87.9825 108.335 94.6606 102.509C89.3202 105.901 82.984 107.865 76.189 107.865C57.1351 107.865 41.689 92.4188 41.689 73.3649C41.689 54.3111 57.1352 38.8649 76.189 38.8649C81.0953 38.8649 85.7624 39.8891 89.9882 41.7353C84.1157 38.0173 77.1537 35.8649 69.689 35.8649Z" fill="black"/>
<path fill-rule="evenodd" clip-rule="evenodd" d="M106.026 76.1714C106.345 77.5893 106.587 79.0403 106.745 80.5203C106.859 81.5802 106.928 82.6345 106.953 83.6814C99.7462 89.9041 90.2069 93.4418 79.9499 92.8545C75.8785 92.6214 71.9936 91.7555 68.3852 90.3579C68.6234 90.375 68.862 90.3904 69.1012 90.4041C83.4443 91.2253 96.6759 85.6578 106.026 76.1714Z" fill="black"/>
<path fill-rule="evenodd" clip-rule="evenodd" d="M106.953 83.6815C104.948 85.413 102.762 86.9366 100.43 88.2213C100.013 101.61 92.7627 113.594 81.7593 120.356C96.9618 114.934 107.357 100.232 106.953 83.6815Z" fill="black"/>
</svg>